# xmcd
#
# Track frame offsets:
#	150
#	12629
#	25227
#	38125
#	51483
#	64557
#	73346
#	84106
#	97580
#	110987
#	124514
#	136346
#	150678
#	164648
#	177433
#	191181
#	202557
#	216227
#	227296
#	240337
#	254192
#	266715
#	281369
#	293207
#	304806
#	315358
#	327797
#
# Disc length: 4543 seconds
#
# Revision: 0
# Processed by: cddbd v1.5.2PL0 Copyright (c) Steve Scherf et al.
# Submitted via: EasyCDDAExtractor 10.0.2.1
#
DISCID=8311bd1b
DTITLE=Various Artist - Memphis Blues (Important Postwar Recordings) - Disc A
DYEAR=2006
DGENRE=Blues
TTITLE0=Joe Hill Louis - Gotta Let You Go
TTITLE1=Joe Hill Louis - Boogie In The Park
TTITLE2=Henry Hill - That Ain't Right (Take 1)
TTITLE3=Doctor Ross - Little Soldier Boy (Take 2)
TTITLE4=Doctor Ross - Country Clown (Take 1)
TTITLE5=William Stewart - County Farm Blues
TTITLE6=William Stewart - They Call Me Talkin' Boy
TTITLE7=Jimmy and Walter - Easy
TTITLE8=Jimmy and Walter - Before Long
TTITLE9=D.A. Hunt - Lonesome Ol' Jail
TTITLE10=D.A. Hunt - Greyhound Blues
TTITLE11=Sleepy John Estes - Registration Day Blues
TTITLE12=Sleepy John Estes - Rats In My Kitchen
TTITLE13=Willam Stewart - Rattlesnake Mama
TTITLE14=William Stewart - Forty Four Blues
TTITLE15=Joe Hill Louis - I Feel Like A Million
TTITLE16=Joe Hill Louis - Heartache Baby
TTITLE17=Charlie Burse - Shorty The Barber
TTITLE18=Woodrow Adams - The Last Time
TTITLE19=Woodrow Adams - Train Is Comin'
TTITLE20=Pinetop Perkins - Pinetop's Boogie Woogie
TTITLE21=Sleepy Joe Estes - Policy Man Blues (Take 1)
TTITLE22=Coy 'Hot Shot' Love - Wolf Call Boogie
TTITLE23=Coy 'Hot Shot' Love - Harmonica Jam
TTITLE24=Jimmy DeBerry - Take A Little Chance
TTITLE25=Doctor Ross - Tailor Made
TTITLE26=Doctor Ross - The Boogie Disease
EXTD=
EXTT0=
EXTT1=
EXTT2=
EXTT3=
EXTT4=
EXTT5=
EXTT6=
EXTT7=
EXTT8=
EXTT9=
EXTT10=
EXTT11=
EXTT12=
EXTT13=
EXTT14=
EXTT15=
EXTT16=
EXTT17=
EXTT18=
EXTT19=
EXTT20=
EXTT21=
EXTT22=
EXTT23=
EXTT24=
EXTT25=
EXTT26=
PLAYORDER=
